<svg width="0" height="0" class="hidden">
  <symbol fill="none" xmlns="http://www.w3.org/2000/svg" viewBox="0 0 140 164" id="bf-icon">
  <title>logo</title>
    <path d="M73.3 64.43C73.3 67.3233 72.5067 69.9133 70.92 72.2C69.3333 74.44 67.1633 76.3067 64.41 77.8C66.1833 79.0133 67.5833 80.5067 68.61 82.28C69.6833 84.0067 70.22 85.92 70.22 88.02C70.22 90.54 69.45 93.0367 67.91 95.51C66.4167 97.9367 64.41 100.107 61.89 102.02C59.37 103.887 56.5 105.403 53.28 106.57C50.06 107.737 46.77 108.32 43.41 108.32C39.77 108.32 36.5733 107.62 33.82 106.22C31.1133 104.867 28.99 102.93 27.45 100.41C27.9167 99.01 28.5233 97.2833 29.27 95.23C30.0633 93.13 30.9267 90.9367 31.86 88.65C32.7933 86.3167 33.7267 84.0067 34.66 81.72C35.64 79.4333 36.55 77.38 37.39 75.56C39.1633 71.5933 40.75 68.3033 42.15 65.69C43.55 63.0767 44.8333 61 46 59.46C43.4333 60.2533 41.1 61.1633 39 62.19C36.9 63.17 35.36 64.1267 34.38 65.06C33.96 64.78 33.5167 64.36 33.05 63.8C32.63 63.24 32.21 62.6333 31.79 61.98C31.4167 61.28 31.09 60.58 30.81 59.88C30.5767 59.18 30.4367 58.55 30.39 57.99C31.6033 57.15 33.1667 56.3567 35.08 55.61C37.04 54.8167 39.1633 54.14 41.45 53.58C43.7367 53.02 46.07 52.5767 48.45 52.25C50.8767 51.9233 53.1867 51.76 55.38 51.76C60.98 51.76 65.3667 52.88 68.54 55.12C71.7133 57.36 73.3 60.4633 73.3 64.43ZM46.63 81.16C45.7433 80.74 44.9267 80.11 44.18 79.27C43.1067 81.65 42.08 83.9833 41.1 86.27C40.1667 88.5567 39.3267 90.68 38.58 92.64C37.8333 94.6 37.2267 96.3033 36.76 97.75C36.2933 99.1967 36.0367 100.247 35.99 100.9C36.6433 101.273 37.4133 101.553 38.3 101.74C39.2333 101.927 40.3767 102.02 41.73 102.02C44.9033 102.02 47.9367 101.577 50.83 100.69C53.7233 99.8033 56.2667 98.6133 58.46 97.12C60.6533 95.58 62.4033 93.83 63.71 91.87C65.0167 89.91 65.67 87.8567 65.67 85.71C65.67 82.63 64.34 80.4133 61.68 79.06C58.04 80.5533 53.9333 81.3 49.36 81.3C48.7067 81.3 48.1933 81.3 47.82 81.3C47.4933 81.3 47.0967 81.2533 46.63 81.16ZM60.21 56.87C59.23 56.87 58.18 56.94 57.06 57.08C55.9867 57.1733 54.8433 57.3367 53.63 57.57C53.8167 57.7567 53.9567 57.9667 54.05 58.2C54.19 58.3867 54.3067 58.5967 54.4 58.83C53.98 59.39 53.4667 60.2067 52.86 61.28C52.2533 62.3533 51.5767 63.6133 50.83 65.06C50.0833 66.46 49.29 68.0233 48.45 69.75C47.6567 71.4767 46.84 73.25 46 75.07C46.7933 74.8833 47.75 74.7433 48.87 74.65C50.0367 74.51 51.18 74.44 52.3 74.44C52.9067 74.44 53.49 74.4633 54.05 74.51C54.6567 74.5567 55.24 74.6267 55.8 74.72C58.04 74.3467 60.0467 73.81 61.82 73.11C63.64 72.3633 65.2033 71.5233 66.51 70.59C67.8167 69.61 68.82 68.5367 69.52 67.37C70.22 66.2033 70.57 64.9667 70.57 63.66C70.57 61.42 69.6833 59.74 67.91 58.62C66.1367 57.4533 63.57 56.87 60.21 56.87ZM104.713 73.81C106.206 73.81 107.373 74.23 108.213 75.07C109.099 75.91 109.543 77.0767 109.543 78.57C109.543 78.9433 109.519 79.34 109.472 79.76C109.426 80.1333 109.333 80.46 109.193 80.74C108.586 80.6467 107.909 80.5767 107.163 80.53C106.416 80.4367 105.529 80.39 104.503 80.39C102.403 80.39 100.303 80.5767 98.2025 80.95C96.1025 81.3233 94.0958 81.6267 92.1825 81.86C90.0825 86.8067 88.3558 91.45 87.0025 95.79C85.6492 100.13 84.5992 104.423 83.8525 108.67C82.2658 108.297 80.8658 107.62 79.6525 106.64C78.4392 105.66 77.2958 104.283 76.2225 102.51C76.5492 101.763 76.9458 100.877 77.4125 99.85C77.8792 98.7767 78.4392 97.4467 79.0925 95.86C79.7458 94.2267 80.5158 92.2667 81.4025 89.98C82.3358 87.6467 83.4325 84.87 84.6925 81.65C82.7325 80.9967 81.4492 79.8533 80.8425 78.22C81.0758 77.9867 81.7292 77.73 82.8025 77.45C83.8758 77.1233 85.1825 76.7733 86.7225 76.4C87.4225 74.58 88.0292 72.97 88.5425 71.57C89.0558 70.1233 89.5225 68.77 89.9425 67.51C90.3625 66.2033 90.7358 64.9433 91.0625 63.73C91.4358 62.47 91.7625 61.14 92.0425 59.74H91.6925C89.9192 59.74 88.4725 59.32 87.3525 58.48C86.2792 57.64 85.7425 56.5433 85.7425 55.19C85.7425 54.8167 85.7892 54.3733 85.8825 53.86C86.0225 53.3467 86.1858 52.9033 86.3725 52.53C87.2592 52.67 88.1225 52.7633 88.9625 52.81C89.8492 52.8567 90.9925 52.88 92.3925 52.88C95.3325 52.88 98.0858 52.81 100.653 52.67C103.219 52.4833 105.529 52.2967 107.583 52.11C109.683 51.9233 111.479 51.76 112.973 51.62C114.466 51.4333 115.609 51.34 116.403 51.34C117.476 51.34 118.433 51.9 119.273 53.02C120.113 54.14 120.766 55.7267 121.233 57.78C119.739 57.64 118.526 57.5467 117.593 57.5C116.706 57.4533 115.913 57.43 115.213 57.43C112.833 57.43 110.639 57.5467 108.633 57.78C106.673 57.9667 104.806 58.2 103.033 58.48C102.753 58.9 102.426 59.4367 102.053 60.09C101.726 60.7433 101.283 61.6767 100.723 62.89C100.163 64.0567 99.4392 65.5967 98.5525 67.51C97.7125 69.4233 96.6392 71.85 95.3325 74.79C97.1525 74.51 98.8792 74.2767 100.513 74.09C102.193 73.9033 103.593 73.81 104.713 73.81Z" fill="white"></path>
    <rect x="4" y="4" width="132" height="156" stroke="#c1b9b9" stroke-width="8"></rect>
  </symbol>
</svg>