<svg width="0" height="0" class="hidden">
  <symbol xmlns="http://www.w3.org/2000/svg" viewBox="0 0 512 512" id="featured-playlist-icon">
    <path d="M464,72H48a32.036,32.036,0,0,0-32,32V408a32.036,32.036,0,0,0,32,32H464a32.036,32.036,0,0,0,32-32V104A32.036,32.036,0,0,0,464,72Zm0,336H48V104H464l.02,304Z"></path>
    <rect width="184" height="32" x="232" y="184"></rect>
    <rect width="240" height="32" x="176" y="256"></rect>
    <rect width="240" height="32" x="176" y="328"></rect>
    <polygon points="88.923 144 88.923 272.923 188.095 203.503 88.923 144"></polygon>
  </symbol>
</svg>